<svg xmlns="http://www.w3.org/2000/svg" xmlns:xlink="http://www.w3.org/1999/xlink" viewBox="0 0 486.85 333.09"><defs><style>.cls-1{fill:#052077;}.cls-2{fill:url(#Degradado_sin_nombre_118);}.cls-3{fill:url(#Degradado_sin_nombre_118-2);}.cls-4{fill:url(#Degradado_sin_nombre_118-3);}.cls-5{fill:url(#Degradado_sin_nombre_118-4);}.cls-6{fill:#56fcfa;}.cls-7{fill:url(#Degradado_sin_nombre_118-5);}.cls-8{fill:url(#Degradado_sin_nombre_118-6);}.cls-9{fill:url(#Degradado_sin_nombre_118-7);}.cls-10{fill:url(#Degradado_sin_nombre_118-8);}.cls-11{fill:url(#Degradado_sin_nombre_118-9);}.cls-12{fill:url(#Degradado_sin_nombre_118-10);}.cls-13{fill:url(#Degradado_sin_nombre_118-11);}.cls-14{fill:url(#Degradado_sin_nombre_118-12);}.cls-15{fill:url(#Degradado_sin_nombre_118-13);}.cls-16{fill:url(#Degradado_sin_nombre_118-14);}.cls-17{fill:url(#Degradado_sin_nombre_118-15);}.cls-18{fill:url(#Degradado_sin_nombre_118-16);}.cls-19{fill:url(#Degradado_sin_nombre_118-17);}.cls-20{fill:url(#Degradado_sin_nombre_118-18);}.cls-21{fill:url(#Degradado_sin_nombre_118-19);}.cls-22{fill:url(#Degradado_sin_nombre_118-20);}.cls-23{fill:url(#Degradado_sin_nombre_118-21);}.cls-24{fill:url(#Degradado_sin_nombre_118-22);}.cls-25{fill:url(#Degradado_sin_nombre_118-23);}.cls-26{fill:url(#Degradado_sin_nombre_118-24);}.cls-27{fill:url(#Degradado_sin_nombre_118-25);}.cls-28{fill:url(#Degradado_sin_nombre_118-26);}.cls-29{fill:url(#Degradado_sin_nombre_118-27);}.cls-30{fill:url(#Degradado_sin_nombre_118-28);}.cls-31{fill:url(#Degradado_sin_nombre_118-29);}.cls-32{fill:url(#Degradado_sin_nombre_118-30);}.cls-33{fill:url(#Degradado_sin_nombre_118-31);}.cls-34{fill:url(#Degradado_sin_nombre_118-32);}.cls-35{fill:url(#Degradado_sin_nombre_118-33);}.cls-36{fill:url(#Degradado_sin_nombre_118-34);}.cls-37{fill:url(#Degradado_sin_nombre_118-35);}.cls-38{fill:url(#Degradado_sin_nombre_118-36);}.cls-39{fill:url(#Degradado_sin_nombre_118-37);}.cls-40{fill:url(#Degradado_sin_nombre_118-38);}.cls-41{fill:url(#Degradado_sin_nombre_118-39);}.cls-42{fill:url(#Degradado_sin_nombre_118-40);}.cls-43{fill:url(#Degradado_sin_nombre_118-41);}.cls-44{fill:url(#Degradado_sin_nombre_118-42);}.cls-45{fill:url(#Degradado_sin_nombre_118-43);}.cls-46{fill:url(#Degradado_sin_nombre_118-44);}.cls-47{fill:url(#Degradado_sin_nombre_118-45);}.cls-48{fill:url(#Degradado_sin_nombre_118-46);}.cls-49{fill:url(#Degradado_sin_nombre_118-47);}.cls-50{fill:url(#Degradado_sin_nombre_118-48);}.cls-51{fill:url(#Degradado_sin_nombre_118-49);}.cls-52{fill:url(#Degradado_sin_nombre_118-50);}.cls-53{fill:url(#Degradado_sin_nombre_118-51);}.cls-54{fill:url(#Degradado_sin_nombre_118-52);}.cls-55{fill:url(#Degradado_sin_nombre_118-53);}.cls-56{fill:url(#Degradado_sin_nombre_118-54);}.cls-57{fill:url(#Degradado_sin_nombre_118-55);}.cls-58{fill:url(#Degradado_sin_nombre_118-56);}.cls-59{fill:url(#Degradado_sin_nombre_118-57);}.cls-60{fill:url(#Degradado_sin_nombre_118-58);}.cls-61{fill:url(#Degradado_sin_nombre_118-59);}.cls-62{fill:url(#Degradado_sin_nombre_118-60);}.cls-63{fill:url(#Degradado_sin_nombre_118-61);}.cls-64{fill:url(#Degradado_sin_nombre_118-62);}.cls-65{fill:url(#Degradado_sin_nombre_118-63);}.cls-66{fill:url(#Degradado_sin_nombre_118-64);}.cls-67{fill:url(#Degradado_sin_nombre_118-65);}.cls-68{fill:url(#Degradado_sin_nombre_118-66);}.cls-69{fill:url(#Degradado_sin_nombre_118-67);}.cls-70{fill:url(#Degradado_sin_nombre_118-68);}.cls-71{fill:url(#Degradado_sin_nombre_118-69);}.cls-72{fill:url(#Degradado_sin_nombre_118-70);}.cls-73{fill:url(#Degradado_sin_nombre_118-71);}.cls-74{fill:url(#Degradado_sin_nombre_118-72);}.cls-75{fill:url(#Degradado_sin_nombre_118-73);}.cls-76{fill:url(#Degradado_sin_nombre_118-74);}.cls-77{fill:url(#Degradado_sin_nombre_118-75);}.cls-78{fill:url(#Degradado_sin_nombre_118-76);}.cls-79{fill:url(#Degradado_sin_nombre_118-77);}.cls-80{fill:url(#Degradado_sin_nombre_118-78);}.cls-81{fill:url(#Degradado_sin_nombre_118-79);}.cls-82{fill:url(#Degradado_sin_nombre_118-80);}.cls-83{fill:url(#Degradado_sin_nombre_118-81);}.cls-84{fill:url(#Degradado_sin_nombre_118-82);}.cls-85{fill:url(#Degradado_sin_nombre_118-83);}.cls-86{fill:url(#Degradado_sin_nombre_118-84);}.cls-87{fill:url(#Degradado_sin_nombre_118-85);}.cls-88{fill:url(#Degradado_sin_nombre_118-86);}.cls-89{fill:url(#Degradado_sin_nombre_118-87);}.cls-90{fill:url(#Degradado_sin_nombre_118-88);}.cls-91{fill:url(#Degradado_sin_nombre_118-89);}.cls-92{fill:url(#Degradado_sin_nombre_118-90);}.cls-93{fill:url(#Degradado_sin_nombre_118-91);}.cls-94{fill:url(#Degradado_sin_nombre_118-92);}.cls-95{fill:url(#Degradado_sin_nombre_118-93);}.cls-96{fill:url(#Degradado_sin_nombre_118-94);}.cls-97{fill:url(#Degradado_sin_nombre_118-95);}.cls-98{fill:url(#Degradado_sin_nombre_118-96);}.cls-99{fill:url(#Degradado_sin_nombre_118-97);}.cls-100{fill:url(#Degradado_sin_nombre_118-98);}.cls-101{fill:url(#Degradado_sin_nombre_118-99);}.cls-102{fill:url(#Degradado_sin_nombre_118-100);}.cls-103{fill:url(#Degradado_sin_nombre_118-101);}.cls-104{fill:url(#Degradado_sin_nombre_118-102);}.cls-105{fill:url(#Degradado_sin_nombre_118-103);}.cls-106{fill:url(#Degradado_sin_nombre_118-104);}.cls-107{fill:url(#Degradado_sin_nombre_118-105);}.cls-108{fill:url(#Degradado_sin_nombre_118-106);}.cls-109{fill:url(#Degradado_sin_nombre_118-107);}.cls-110{fill:url(#Degradado_sin_nombre_118-108);}.cls-111{fill:url(#Degradado_sin_nombre_118-109);}.cls-112{fill:url(#Degradado_sin_nombre_118-110);}.cls-113{fill:url(#Degradado_sin_nombre_118-111);}.cls-114{fill:url(#Degradado_sin_nombre_118-112);}.cls-115{fill:url(#Degradado_sin_nombre_118-113);}.cls-116{fill:url(#Degradado_sin_nombre_118-114);}.cls-117{fill:url(#Degradado_sin_nombre_118-115);}.cls-118{fill:url(#Degradado_sin_nombre_118-116);}.cls-119{fill:url(#Degradado_sin_nombre_118-117);}.cls-120{fill:url(#Degradado_sin_nombre_118-118);}.cls-121{fill:url(#Degradado_sin_nombre_118-119);}.cls-122{fill:url(#Degradado_sin_nombre_118-120);}.cls-123{fill:url(#Degradado_sin_nombre_118-121);}.cls-124{fill:url(#Degradado_sin_nombre_118-122);}.cls-125{fill:url(#Degradado_sin_nombre_118-123);}.cls-126{fill:url(#Degradado_sin_nombre_118-124);}.cls-127{fill:#fff;}</style><linearGradient id="Degradado_sin_nombre_118" x1="242.16" y1="67.65" x2="248.55" y2="67.65" gradientUnits="userSpaceOnUse"><stop offset="0" stop-color="#3b6bb3"/><stop offset="1" stop-color="#01a8d4"/></linearGradient><linearGradient id="Degradado_sin_nombre_118-2" x1="242.44" y1="67.65" x2="248.27" y2="67.65" xlink:href="#Degradado_sin_nombre_118"/><linearGradient id="Degradado_sin_nombre_118-3" x1="301.82" y1="107.96" x2="308.21" y2="107.96" xlink:href="#Degradado_sin_nombre_118"/><linearGradient id="Degradado_sin_nombre_118-4" x1="302.1" y1="107.96" x2="307.93" y2="107.96" xlink:href="#Degradado_sin_nombre_118"/><linearGradient id="Degradado_sin_nombre_118-5" x1="354.57" y1="48.4" x2="367.29" y2="48.4" xlink:href="#Degradado_sin_nombre_118"/><linearGradient id="Degradado_sin_nombre_118-6" x1="354.86" y1="48.34" x2="367" y2="48.34" xlink:href="#Degradado_sin_nombre_118"/><linearGradient id="Degradado_sin_nombre_118-7" x1="359.43" y1="93.71" x2="362.1" y2="93.71" xlink:href="#Degradado_sin_nombre_118"/><linearGradient id="Degradado_sin_nombre_118-8" x1="359.71" y1="93.71" x2="361.82" y2="93.71" xlink:href="#Degradado_sin_nombre_118"/><linearGradient id="Degradado_sin_nombre_118-9" x1="351.25" y1="45.4" x2="359.6" y2="45.4" xlink:href="#Degradado_sin_nombre_118"/><linearGradient id="Degradado_sin_nombre_118-10" x1="351.53" y1="45.4" x2="359.31" y2="45.4" xlink:href="#Degradado_sin_nombre_118"/><linearGradient id="Degradado_sin_nombre_118-11" x1="356.75" y1="87.06" x2="359.42" y2="87.06" xlink:href="#Degradado_sin_nombre_118"/><linearGradient id="Degradado_sin_nombre_118-12" x1="357.03" y1="87.06" x2="359.14" y2="87.06" xlink:href="#Degradado_sin_nombre_118"/><linearGradient id="Degradado_sin_nombre_118-13" x1="349.42" y1="46.06" x2="357.54" y2="46.06" xlink:href="#Degradado_sin_nombre_118"/><linearGradient id="Degradado_sin_nombre_118-14" x1="349.7" y1="46.06" x2="357.26" y2="46.06" xlink:href="#Degradado_sin_nombre_118"/><linearGradient id="Degradado_sin_nombre_118-15" x1="348.71" y1="89.2" x2="351.38" y2="89.2" xlink:href="#Degradado_sin_nombre_118"/><linearGradient id="Degradado_sin_nombre_118-16" x1="349" y1="89.2" x2="351.1" y2="89.2" xlink:href="#Degradado_sin_nombre_118"/><linearGradient id="Degradado_sin_nombre_118-17" x1="343.81" y1="44.64" x2="355.47" y2="44.64" xlink:href="#Degradado_sin_nombre_118"/><linearGradient id="Degradado_sin_nombre_118-18" x1="344.22" y1="44.58" x2="355.18" y2="44.58" xlink:href="#Degradado_sin_nombre_118"/><linearGradient id="Degradado_sin_nombre_118-19" x1="343.17" y1="86.54" x2="345.83" y2="86.54" xlink:href="#Degradado_sin_nombre_118"/><linearGradient id="Degradado_sin_nombre_118-20" x1="343.45" y1="86.54" x2="345.55" y2="86.54" xlink:href="#Degradado_sin_nombre_118"/><linearGradient id="Degradado_sin_nombre_118-21" x1="335.08" y1="49.86" x2="352.63" y2="49.86" xlink:href="#Degradado_sin_nombre_118"/><linearGradient id="Degradado_sin_nombre_118-22" x1="335.37" y1="49.8" x2="352.34" y2="49.8" xlink:href="#Degradado_sin_nombre_118"/><linearGradient id="Degradado_sin_nombre_118-23" x1="338.21" y1="95.57" x2="343.51" y2="95.57" xlink:href="#Degradado_sin_nombre_118"/><linearGradient id="Degradado_sin_nombre_118-24" x1="338.5" y1="95.57" x2="343.23" y2="95.57" xlink:href="#Degradado_sin_nombre_118"/><linearGradient id="Degradado_sin_nombre_118-25" x1="335.35" y1="38.98" x2="344.74" y2="38.98" xlink:href="#Degradado_sin_nombre_118"/><linearGradient id="Degradado_sin_nombre_118-26" x1="335.63" y1="38.98" x2="344.46" y2="38.98" xlink:href="#Degradado_sin_nombre_118"/><linearGradient id="Degradado_sin_nombre_118-27" x1="334.64" y1="75.92" x2="337.31" y2="75.92" xlink:href="#Degradado_sin_nombre_118"/><linearGradient id="Degradado_sin_nombre_118-28" x1="334.93" y1="75.92" x2="337.03" y2="75.92" xlink:href="#Degradado_sin_nombre_118"/><linearGradient id="Degradado_sin_nombre_118-29" x1="328.13" y1="66.31" x2="333.55" y2="66.31" xlink:href="#Degradado_sin_nombre_118"/><linearGradient id="Degradado_sin_nombre_118-30" x1="328.53" y1="66.25" x2="333.27" y2="66.25" xlink:href="#Degradado_sin_nombre_118"/><linearGradient id="Degradado_sin_nombre_118-31" x1="331.59" y1="46.91" x2="334.26" y2="46.91" xlink:href="#Degradado_sin_nombre_118"/><linearGradient id="Degradado_sin_nombre_118-32" x1="331.87" y1="46.91" x2="333.97" y2="46.91" xlink:href="#Degradado_sin_nombre_118"/><linearGradient id="Degradado_sin_nombre_118-33" x1="327.48" y1="85.36" x2="330.15" y2="85.36" xlink:href="#Degradado_sin_nombre_118"/><linearGradient id="Degradado_sin_nombre_118-34" x1="327.76" y1="85.36" x2="329.87" y2="85.36" xlink:href="#Degradado_sin_nombre_118"/><linearGradient id="Degradado_sin_nombre_118-35" x1="324.16" y1="40.11" x2="336.35" y2="40.11" xlink:href="#Degradado_sin_nombre_118"/><linearGradient id="Degradado_sin_nombre_118-36" x1="324.44" y1="40.11" x2="336.07" y2="40.11" xlink:href="#Degradado_sin_nombre_118"/><linearGradient id="Degradado_sin_nombre_118-37" x1="323.46" y1="78.36" x2="326.13" y2="78.36" xlink:href="#Degradado_sin_nombre_118"/><linearGradient id="Degradado_sin_nombre_118-38" x1="323.74" y1="78.36" x2="325.84" y2="78.36" xlink:href="#Degradado_sin_nombre_118"/><linearGradient id="Degradado_sin_nombre_118-39" x1="322.06" y1="48.72" x2="333.03" y2="48.72" xlink:href="#Degradado_sin_nombre_118"/><linearGradient id="Degradado_sin_nombre_118-40" x1="322.35" y1="48.66" x2="332.75" y2="48.66" xlink:href="#Degradado_sin_nombre_118"/><linearGradient id="Degradado_sin_nombre_118-41" x1="325.12" y1="93.83" x2="327.79" y2="93.83" xlink:href="#Degradado_sin_nombre_118"/><linearGradient id="Degradado_sin_nombre_118-42" x1="325.4" y1="93.83" x2="327.5" y2="93.83" xlink:href="#Degradado_sin_nombre_118"/><linearGradient id="Degradado_sin_nombre_118-43" x1="314.54" y1="29.91" x2="330.41" y2="29.91" xlink:href="#Degradado_sin_nombre_118"/><linearGradient id="Degradado_sin_nombre_118-44" x1="314.94" y1="29.85" x2="330.12" y2="29.85" xlink:href="#Degradado_sin_nombre_118"/><linearGradient id="Degradado_sin_nombre_118-45" x1="313.89" y1="56.74" x2="316.56" y2="56.74" xlink:href="#Degradado_sin_nombre_118"/><linearGradient id="Degradado_sin_nombre_118-46" x1="314.17" y1="56.74" x2="316.28" y2="56.74" xlink:href="#Degradado_sin_nombre_118"/><linearGradient id="Degradado_sin_nombre_118-47" x1="221.25" y1="76.64" x2="314.15" y2="76.64" xlink:href="#Degradado_sin_nombre_118"/><linearGradient id="Degradado_sin_nombre_118-48" x1="221.54" y1="76.64" x2="313.87" y2="76.64" xlink:href="#Degradado_sin_nombre_118"/><linearGradient id="Degradado_sin_nombre_118-49" x1="312.19" y1="93.92" x2="314.85" y2="93.92" xlink:href="#Degradado_sin_nombre_118"/><linearGradient id="Degradado_sin_nombre_118-50" x1="312.47" y1="93.92" x2="314.57" y2="93.92" xlink:href="#Degradado_sin_nombre_118"/><linearGradient id="Degradado_sin_nombre_118-51" x1="220.25" y1="79.68" x2="222.92" y2="79.68" xlink:href="#Degradado_sin_nombre_118"/><linearGradient id="Degradado_sin_nombre_118-52" x1="220.54" y1="79.68" x2="222.64" y2="79.68" xlink:href="#Degradado_sin_nombre_118"/><linearGradient id="Degradado_sin_nombre_118-53" x1="231.58" y1="70.84" x2="306.82" y2="70.84" xlink:href="#Degradado_sin_nombre_118"/><linearGradient id="Degradado_sin_nombre_118-54" x1="231.99" y1="70.78" x2="306.42" y2="70.78" xlink:href="#Degradado_sin_nombre_118"/><linearGradient id="Degradado_sin_nombre_118-55" x1="304.8" y1="65.04" x2="307.47" y2="65.04" xlink:href="#Degradado_sin_nombre_118"/><linearGradient id="Degradado_sin_nombre_118-56" x1="305.08" y1="65.04" x2="307.19" y2="65.04" xlink:href="#Degradado_sin_nombre_118"/><linearGradient id="Degradado_sin_nombre_118-57" x1="230.94" y1="79.7" x2="233.6" y2="79.7" xlink:href="#Degradado_sin_nombre_118"/><linearGradient id="Degradado_sin_nombre_118-58" x1="231.22" y1="79.7" x2="233.32" y2="79.7" xlink:href="#Degradado_sin_nombre_118"/><linearGradient id="Degradado_sin_nombre_118-59" x1="201.3" y1="62.49" x2="310.49" y2="62.49" xlink:href="#Degradado_sin_nombre_118"/><linearGradient id="Degradado_sin_nombre_118-60" x1="201.59" y1="62.49" x2="310.09" y2="62.49" xlink:href="#Degradado_sin_nombre_118"/><linearGradient id="Degradado_sin_nombre_118-61" x1="308.47" y1="42.84" x2="311.14" y2="42.84" xlink:href="#Degradado_sin_nombre_118"/><linearGradient id="Degradado_sin_nombre_118-62" x1="308.75" y1="42.84" x2="310.86" y2="42.84" xlink:href="#Degradado_sin_nombre_118"/><linearGradient id="Degradado_sin_nombre_118-63" x1="200.6" y1="100.39" x2="203.27" y2="100.39" xlink:href="#Degradado_sin_nombre_118"/><linearGradient id="Degradado_sin_nombre_118-64" x1="200.88" y1="100.39" x2="202.99" y2="100.39" xlink:href="#Degradado_sin_nombre_118"/><linearGradient id="Degradado_sin_nombre_118-65" x1="144.23" y1="89.45" x2="287.5" y2="89.45" xlink:href="#Degradado_sin_nombre_118"/><linearGradient id="Degradado_sin_nombre_118-66" x1="144.51" y1="89.5" x2="287.22" y2="89.5" xlink:href="#Degradado_sin_nombre_118"/><linearGradient id="Degradado_sin_nombre_118-67" x1="282.69" y1="20.91" x2="285.36" y2="20.91" xlink:href="#Degradado_sin_nombre_118"/><linearGradient id="Degradado_sin_nombre_118-68" x1="282.98" y1="20.91" x2="285.08" y2="20.91" xlink:href="#Degradado_sin_nombre_118"/><linearGradient id="Degradado_sin_nombre_118-69" x1="140.67" y1="93.26" x2="277.73" y2="93.26" xlink:href="#Degradado_sin_nombre_118"/><linearGradient id="Degradado_sin_nombre_118-70" x1="140.96" y1="93.26" x2="277.45" y2="93.26" xlink:href="#Degradado_sin_nombre_118"/><linearGradient id="Degradado_sin_nombre_118-71" x1="276.06" y1="31.53" x2="278.73" y2="31.53" xlink:href="#Degradado_sin_nombre_118"/><linearGradient id="Degradado_sin_nombre_118-72" x1="276.35" y1="31.53" x2="278.45" y2="31.53" xlink:href="#Degradado_sin_nombre_118"/><linearGradient id="Degradado_sin_nombre_118-73" x1="235.59" y1="106.04" x2="328.9" y2="106.04" xlink:href="#Degradado_sin_nombre_118"/><linearGradient id="Degradado_sin_nombre_118-74" x1="235.87" y1="106.04" x2="328.5" y2="106.04" xlink:href="#Degradado_sin_nombre_118"/><linearGradient id="Degradado_sin_nombre_118-75" x1="234.59" y1="98.41" x2="237.26" y2="98.41" xlink:href="#Degradado_sin_nombre_118"/><linearGradient id="Degradado_sin_nombre_118-76" x1="234.87" y1="98.41" x2="236.97" y2="98.41" xlink:href="#Degradado_sin_nombre_118"/><linearGradient id="Degradado_sin_nombre_118-77" x1="326.88" y1="109.35" x2="329.55" y2="109.35" xlink:href="#Degradado_sin_nombre_118"/><linearGradient id="Degradado_sin_nombre_118-78" x1="327.16" y1="109.35" x2="329.27" y2="109.35" xlink:href="#Degradado_sin_nombre_118"/><linearGradient id="Degradado_sin_nombre_118-79" x1="272.16" y1="84.6" x2="310.07" y2="84.6" xlink:href="#Degradado_sin_nombre_118"/><linearGradient id="Degradado_sin_nombre_118-80" x1="272.56" y1="84.6" x2="309.79" y2="84.6" xlink:href="#Degradado_sin_nombre_118"/><linearGradient id="Degradado_sin_nombre_118-81" x1="287.72" y1="74.4" x2="290.39" y2="74.4" xlink:href="#Degradado_sin_nombre_118"/><linearGradient id="Degradado_sin_nombre_118-82" x1="288" y1="74.4" x2="290.11" y2="74.4" xlink:href="#Degradado_sin_nombre_118"/><linearGradient id="Degradado_sin_nombre_118-83" x1="271.51" y1="88.72" x2="274.18" y2="88.72" xlink:href="#Degradado_sin_nombre_118"/><linearGradient id="Degradado_sin_nombre_118-84" x1="271.79" y1="88.72" x2="273.89" y2="88.72" xlink:href="#Degradado_sin_nombre_118"/><linearGradient id="Degradado_sin_nombre_118-85" x1="131.12" y1="104.45" x2="156.97" y2="104.45" xlink:href="#Degradado_sin_nombre_118"/><linearGradient id="Degradado_sin_nombre_118-86" x1="131.4" y1="104.45" x2="156.69" y2="104.45" xlink:href="#Degradado_sin_nombre_118"/><linearGradient id="Degradado_sin_nombre_118-87" x1="153.78" y1="122.23" x2="157.5" y2="122.23" xlink:href="#Degradado_sin_nombre_118"/><linearGradient id="Degradado_sin_nombre_118-88" x1="154.06" y1="122.23" x2="157.21" y2="122.23" xlink:href="#Degradado_sin_nombre_118"/><linearGradient id="Degradado_sin_nombre_118-89" x1="167.49" y1="24.42" x2="278.32" y2="24.42" xlink:href="#Degradado_sin_nombre_118"/><linearGradient id="Degradado_sin_nombre_118-90" x1="167.89" y1="24.42" x2="278.04" y2="24.42" xlink:href="#Degradado_sin_nombre_118"/><linearGradient id="Degradado_sin_nombre_118-91" x1="166.84" y1="38.89" x2="169.51" y2="38.89" xlink:href="#Degradado_sin_nombre_118"/><linearGradient id="Degradado_sin_nombre_118-92" x1="167.12" y1="38.89" x2="169.22" y2="38.89" xlink:href="#Degradado_sin_nombre_118"/><linearGradient id="Degradado_sin_nombre_118-93" x1="177.21" y1="22.8" x2="275.54" y2="22.8" xlink:href="#Degradado_sin_nombre_118"/><linearGradient id="Degradado_sin_nombre_118-94" x1="177.49" y1="22.85" x2="275.14" y2="22.85" xlink:href="#Degradado_sin_nombre_118"/><linearGradient id="Degradado_sin_nombre_118-95" x1="176.21" y1="34.07" x2="178.88" y2="34.07" xlink:href="#Degradado_sin_nombre_118"/><linearGradient id="Degradado_sin_nombre_118-96" x1="176.49" y1="34.07" x2="178.6" y2="34.07" xlink:href="#Degradado_sin_nombre_118"/><linearGradient id="Degradado_sin_nombre_118-97" x1="165.9" y1="22.07" x2="272.23" y2="22.07" xlink:href="#Degradado_sin_nombre_118"/><linearGradient id="Degradado_sin_nombre_118-98" x1="166.3" y1="22.13" x2="271.83" y2="22.13" xlink:href="#Degradado_sin_nombre_118"/><linearGradient id="Degradado_sin_nombre_118-99" x1="165.25" y1="23.17" x2="167.91" y2="23.17" xlink:href="#Degradado_sin_nombre_118"/><linearGradient id="Degradado_sin_nombre_118-100" x1="165.53" y1="23.17" x2="167.63" y2="23.17" xlink:href="#Degradado_sin_nombre_118"/><linearGradient id="Degradado_sin_nombre_118-101" x1="173.62" y1="20.26" x2="268.9" y2="20.26" xlink:href="#Degradado_sin_nombre_118"/><linearGradient id="Degradado_sin_nombre_118-102" x1="174.02" y1="20.31" x2="268.5" y2="20.31" xlink:href="#Degradado_sin_nombre_118"/><linearGradient id="Degradado_sin_nombre_118-103" x1="172.97" y1="22.44" x2="175.64" y2="22.44" xlink:href="#Degradado_sin_nombre_118"/><linearGradient id="Degradado_sin_nombre_118-104" x1="173.25" y1="22.44" x2="175.36" y2="22.44" xlink:href="#Degradado_sin_nombre_118"/><linearGradient id="Degradado_sin_nombre_118-105" x1="166.51" y1="19.06" x2="247.75" y2="19.06" xlink:href="#Degradado_sin_nombre_118"/><linearGradient id="Degradado_sin_nombre_118-106" x1="166.91" y1="19.12" x2="247.35" y2="19.12" xlink:href="#Degradado_sin_nombre_118"/><linearGradient id="Degradado_sin_nombre_118-107" x1="165.86" y1="14.52" x2="168.53" y2="14.52" xlink:href="#Degradado_sin_nombre_118"/><linearGradient id="Degradado_sin_nombre_118-108" x1="166.15" y1="14.52" x2="168.25" y2="14.52" xlink:href="#Degradado_sin_nombre_118"/><linearGradient id="Degradado_sin_nombre_118-109" x1="172.14" y1="17.16" x2="242.51" y2="17.16" xlink:href="#Degradado_sin_nombre_118"/><linearGradient id="Degradado_sin_nombre_118-110" x1="172.42" y1="17.22" x2="242.11" y2="17.22" xlink:href="#Degradado_sin_nombre_118"/><linearGradient id="Degradado_sin_nombre_118-111" x1="171.14" y1="13.91" x2="173.81" y2="13.91" xlink:href="#Degradado_sin_nombre_118"/><linearGradient id="Degradado_sin_nombre_118-112" x1="171.43" y1="13.91" x2="173.53" y2="13.91" xlink:href="#Degradado_sin_nombre_118"/><linearGradient id="Degradado_sin_nombre_118-113" x1="184.03" y1="14.61" x2="236.22" y2="14.61" xlink:href="#Degradado_sin_nombre_118"/><linearGradient id="Degradado_sin_nombre_118-114" x1="184.31" y1="14.67" x2="235.82" y2="14.67" xlink:href="#Degradado_sin_nombre_118"/><linearGradient id="Degradado_sin_nombre_118-115" x1="183.03" y1="13.83" x2="185.7" y2="13.83" xlink:href="#Degradado_sin_nombre_118"/><linearGradient id="Degradado_sin_nombre_118-116" x1="183.31" y1="13.83" x2="185.41" y2="13.83" xlink:href="#Degradado_sin_nombre_118"/><linearGradient id="Degradado_sin_nombre_118-117" x1="215.84" y1="12.12" x2="226.78" y2="12.12" xlink:href="#Degradado_sin_nombre_118"/><linearGradient id="Degradado_sin_nombre_118-118" x1="216.12" y1="12.18" x2="226.38" y2="12.18" xlink:href="#Degradado_sin_nombre_118"/><linearGradient id="Degradado_sin_nombre_118-119" x1="214.84" y1="15.45" x2="217.51" y2="15.45" xlink:href="#Degradado_sin_nombre_118"/><linearGradient id="Degradado_sin_nombre_118-120" x1="215.12" y1="15.45" x2="217.22" y2="15.45" xlink:href="#Degradado_sin_nombre_118"/><linearGradient id="Degradado_sin_nombre_118-121" x1="147.87" y1="33.9" x2="155.69" y2="33.9" xlink:href="#Degradado_sin_nombre_118"/><linearGradient id="Degradado_sin_nombre_118-122" x1="148.15" y1="33.9" x2="155.41" y2="33.9" xlink:href="#Degradado_sin_nombre_118"/><linearGradient id="Degradado_sin_nombre_118-123" x1="150.92" y1="60.82" x2="157.8" y2="60.82" xlink:href="#Degradado_sin_nombre_118"/><linearGradient id="Degradado_sin_nombre_118-124" x1="151.2" y1="60.82" x2="157.51" y2="60.82" gradientTransform="translate(181.85 -102.79) rotate(78.03)" xlink:href="#Degradado_sin_nombre_118"/></defs><g id="Capa_2" data-name="Capa 2"><g id="Ñëîé_1" data-name="Ñëîé 1"><path class="cls-1" d="M0,280.8V230.45H19.17q10.53,0,16.12,6.29t5.59,18.15q0,12.27-5.79,19.09T18.9,280.8Zm18.59-44.54H6.84v38.38H18.59q7.56,0,11.42-4.9t3.86-14.51q0-9.19-3.93-14.08T18.59,236.26Z"/><path class="cls-1" d="M53.69,280.8V230.45H89.58v6.25H60.46v15h26.9v5.88H60.46v16.89h29.7v6.29Z"/><path class="cls-1" d="M100.31,264.22h6.6a11.52,11.52,0,0,0,3.64,8.71q3.53,3.26,9.45,3.25t9.21-2.46a7.86,7.86,0,0,0,3.36-6.7q0-5.77-12.64-8.78l-1.16-.28q-10.26-2.41-13.56-5.41c-2.2-2-3.29-4.83-3.29-8.5a13.37,13.37,0,0,1,4.92-10.82q4.92-4.08,13.09-4.08,8.34,0,13.12,4.29t4.86,11.77l-6.53,0a10.76,10.76,0,0,0-3.44-7.76q-3.09-2.7-8.46-2.7a13.29,13.29,0,0,0-8,2.2,6.94,6.94,0,0,0-3,5.87q0,5.83,12.45,8.71l2.83.69.72.17c5.42,1.29,9,2.7,10.8,4.2a11.31,11.31,0,0,1,3.08,4.15,13.69,13.69,0,0,1,1.06,5.45,14.24,14.24,0,0,1-5.22,11.59q-5.21,4.31-14.1,4.31-9.15,0-14.27-4.63T100.31,264.22Z"/><path class="cls-1" d="M146.45,280.8l18.69-50.35h7.56l18.76,50.35h-7.41l-5.34-15H158.89l-5.37,15ZM161,259.88H176.7l-7.8-22.22Z"/><path class="cls-1" d="M200.86,230.45h19.51a43.09,43.09,0,0,1,7,.41,13.33,13.33,0,0,1,4,1.37,11.78,11.78,0,0,1,4.84,4.85,15.37,15.37,0,0,1,1.65,7.31,13.24,13.24,0,0,1-1.74,7,11.75,11.75,0,0,1-5.19,4.53,6.93,6.93,0,0,1,4.18,2.77c.83,1.3,1.35,3.49,1.56,6.59l.58,8.31a13.61,13.61,0,0,0,.7,4,3.37,3.37,0,0,0,1.59,1.86v1.41h-7.9c-.63-1.05-1.08-3.3-1.33-6.74v-.2l-.41-6.57q-.34-5.06-2.15-6.56t-9.06-1.5H207.63V280.8h-6.77Zm6.7,5.91v17.06h11.69c4.21,0,7.19-.69,8.93-2s2.62-3.65,2.62-6.84q0-4.47-2.46-6.32t-9.09-1.85Z"/><path class="cls-1" d="M251.54,230.45h19.52a43.09,43.09,0,0,1,7,.41,13.36,13.36,0,0,1,4,1.37,11.78,11.78,0,0,1,4.84,4.85,15.26,15.26,0,0,1,1.66,7.31,13.24,13.24,0,0,1-1.74,7,11.83,11.83,0,0,1-5.2,4.53,7,7,0,0,1,4.19,2.77c.83,1.3,1.35,3.49,1.55,6.59l.58,8.31a14,14,0,0,0,.7,4,3.45,3.45,0,0,0,1.59,1.86v1.41h-7.89c-.64-1.05-1.08-3.3-1.34-6.74v-.2l-.41-6.57q-.33-5.06-2.15-6.56t-9.06-1.5H258.31V280.8h-6.77Zm6.7,5.91v17.06h11.69c4.22,0,7.2-.69,8.94-2s2.61-3.65,2.61-6.84q0-4.47-2.46-6.32t-9.09-1.85Z"/><path class="cls-1" d="M300,255.67q0-12.46,6.34-19.5t17.55-7q11.18,0,17.48,7t6.31,19.51q0,12.48-6.31,19.5t-17.48,7q-11.21,0-17.55-7T300,255.67Zm7.07,0q0,9.68,4.46,15.13t12.36,5.45q7.86,0,12.29-5.45t4.42-15.13q0-9.71-4.42-15.14t-12.29-5.43q-7.89,0-12.36,5.43T307.11,255.67Z"/><path class="cls-1" d="M360.53,280.8V230.45h6.91v44h25.09v6.36Z"/><path class="cls-1" d="M402.19,280.8V230.45h6.91v44h25.09v6.36Z"/><path class="cls-1" d="M439.17,255.67q0-12.46,6.34-19.5t17.55-7q11.18,0,17.49,7t6.3,19.51q0,12.48-6.3,19.5t-17.49,7q-11.21,0-17.55-7T439.17,255.67Zm7.08,0q0,9.68,4.46,15.13t12.35,5.45q7.86,0,12.29-5.45t4.43-15.13q0-9.71-4.43-15.14t-12.29-5.43q-7.89,0-12.35,5.43T446.25,255.67Z"/><path class="cls-1" d="M202.07,332.48l-5.63-18.83h3.29l4,14.4,3.71-14.4h3.67l3.68,14.4,4.13-14.4h3.25l-5.73,18.83h-3.2l-4-14.5-4,14.5Z"/><path class="cls-1" d="M251.67,326.4h3.13a7.67,7.67,0,0,1-2.71,4.9,8.44,8.44,0,0,1-5.54,1.79,7.74,7.74,0,0,1-6.18-2.63,10.69,10.69,0,0,1-2.27-7.19q0-4.81,2.25-7.53a7.64,7.64,0,0,1,6.2-2.7,8,8,0,0,1,6.29,2.49q2.22,2.5,2.22,7.05c0,.39,0,.68,0,.86a4.91,4.91,0,0,1,0,.55H241.42a7,7,0,0,0,1.48,4.59,5.62,5.62,0,0,0,7.14.64A4.64,4.64,0,0,0,251.67,326.4Zm-10.27-5h10.34a5.85,5.85,0,0,0-1.34-4.07,5.56,5.56,0,0,0-7.42,0A6.54,6.54,0,0,0,241.4,321.35Z"/><path class="cls-1" d="M272.94,332.48V306.59H276v9.68a7.65,7.65,0,0,1,12.11-.49,11.19,11.19,0,0,1,2.27,7.35,11,11,0,0,1-2.24,7.23,7.42,7.42,0,0,1-6,2.7,7.88,7.88,0,0,1-3.47-.72A7.55,7.55,0,0,1,276,330.1v2.38Zm3-9.55a8.76,8.76,0,0,0,1.45,5.42,4.87,4.87,0,0,0,4.11,1.9,5,5,0,0,0,4.1-1.85,7.81,7.81,0,0,0,1.51-5.06,9.1,9.1,0,0,0-1.45-5.51,4.85,4.85,0,0,0-4.13-1.95,5,5,0,0,0-4.19,1.77A8.42,8.42,0,0,0,275.92,322.93Z"/><path class="cls-2" d="M245.36,70.84a3.2,3.2,0,1,1,3.19-3.19A3.19,3.19,0,0,1,245.36,70.84Zm0-5.12a1.93,1.93,0,1,0,1.93,1.93A1.92,1.92,0,0,0,245.36,65.72Z"/><path class="cls-3" d="M245.36,64.73a2.92,2.92,0,1,1-2.92,2.92A2.92,2.92,0,0,1,245.36,64.73Zm0,5.13a2.22,2.22,0,1,0-2.22-2.21A2.21,2.21,0,0,0,245.36,69.86Z"/><path class="cls-4" d="M305,111.16a3.2,3.2,0,1,1,3.2-3.2A3.2,3.2,0,0,1,305,111.16Zm0-5.13a1.93,1.93,0,1,0,1.93,1.93A1.94,1.94,0,0,0,305,106Z"/><path class="cls-5" d="M305,105.05A2.91,2.91,0,1,1,302.1,108,2.92,2.92,0,0,1,305,105.05Zm0,5.13A2.22,2.22,0,1,0,302.8,108,2.23,2.23,0,0,0,305,110.18Z"/><path class="cls-6" d="M272.27,45.91a3.2,3.2,0,1,0-3.19-3.2A3.21,3.21,0,0,0,272.27,45.91Z"/><circle class="cls-6" cx="272.27" cy="42.71" r="1.93"/><path class="cls-6" d="M260.44,22.09a3.2,3.2,0,1,0-3.2,3.19A3.2,3.2,0,0,0,260.44,22.09Z"/><path class="cls-6" d="M257.24,24a1.93,1.93,0,1,1,1.93-1.93A1.94,1.94,0,0,1,257.24,24Z"/><path class="cls-6" d="M246.28,22.44a3.2,3.2,0,1,0-3.2,3.19A3.2,3.2,0,0,0,246.28,22.44Z"/><path class="cls-6" d="M243.08,24.37A1.93,1.93,0,1,1,245,22.44,1.94,1.94,0,0,1,243.08,24.37Z"/><path class="cls-6" d="M222.81,47a3.2,3.2,0,1,0-3.2-3.2A3.21,3.21,0,0,0,222.81,47Z"/><circle class="cls-6" cx="222.81" cy="43.76" r="1.93"/><path class="cls-6" d="M210.23,47a3.2,3.2,0,1,0-3.2-3.2A3.2,3.2,0,0,0,210.23,47Z"/><circle class="cls-6" cx="210.23" cy="43.76" r="1.93"/><path class="cls-6" d="M187.45,48.08a3.2,3.2,0,1,0,3.19,3.2A3.2,3.2,0,0,0,187.45,48.08Z"/><path class="cls-6" d="M187.45,49.35a1.93,1.93,0,1,1-1.93,1.93A1.93,1.93,0,0,1,187.45,49.35Z"/><path class="cls-6" d="M158,73.12a3.2,3.2,0,1,0-3.2,3.2A3.19,3.19,0,0,0,158,73.12Z"/><path class="cls-6" d="M154.76,71.19a1.93,1.93,0,1,1-1.93,1.93A1.93,1.93,0,0,1,154.76,71.19Z"/><path class="cls-6" d="M200.09,33.57a3.2,3.2,0,1,0,3.2,3.2A3.21,3.21,0,0,0,200.09,33.57Z"/><circle class="cls-6" cx="200.09" cy="36.77" r="1.93"/><path class="cls-6" d="M246.64,88.57a3.2,3.2,0,1,0,3.19,3.2A3.2,3.2,0,0,0,246.64,88.57Z"/><path class="cls-6" d="M246.64,89.84a1.93,1.93,0,1,1-1.93,1.93A1.93,1.93,0,0,1,246.64,89.84Z"/><path class="cls-6" d="M224.85,65.85a3.2,3.2,0,1,0,3.2,3.19A3.2,3.2,0,0,0,224.85,65.85Z"/><path class="cls-6" d="M224.85,71A1.93,1.93,0,1,1,226.78,69,1.92,1.92,0,0,1,224.85,71Z"/><path class="cls-6" d="M212,88.69a3.2,3.2,0,1,0,3.2,3.19A3.19,3.19,0,0,0,212,88.69Z"/><path class="cls-6" d="M212,90a1.93,1.93,0,1,1-1.93,1.93A1.93,1.93,0,0,1,212,90Z"/><path class="cls-6" d="M212,100.8a3.2,3.2,0,1,0,3.2,3.2A3.2,3.2,0,0,0,212,100.8Z"/><path class="cls-6" d="M212,102.07A1.93,1.93,0,1,1,210.1,104,1.93,1.93,0,0,1,212,102.07Z"/><path class="cls-6" d="M187.33,107.56a3.2,3.2,0,1,0,3.2,3.2A3.21,3.21,0,0,0,187.33,107.56Z"/><path class="cls-6" d="M187.33,108.83a1.93,1.93,0,1,1-1.93,1.93A1.93,1.93,0,0,1,187.33,108.83Z"/><path class="cls-6" d="M187.33,92.41a3.2,3.2,0,1,0,3.2,3.2A3.21,3.21,0,0,0,187.33,92.41Z"/><path class="cls-6" d="M187.33,93.68a1.93,1.93,0,1,1-1.93,1.93A1.94,1.94,0,0,1,187.33,93.68Z"/><path class="cls-6" d="M187.33,83.09a3.2,3.2,0,1,0,3.2,3.2A3.21,3.21,0,0,0,187.33,83.09Z"/><path class="cls-6" d="M187.33,84.36a1.93,1.93,0,1,1-1.93,1.93A1.93,1.93,0,0,1,187.33,84.36Z"/><path class="cls-6" d="M169.85,83.09a3.2,3.2,0,1,0,3.2,3.2A3.2,3.2,0,0,0,169.85,83.09Z"/><path class="cls-6" d="M169.85,88.22a1.93,1.93,0,1,1,1.93-1.93A1.94,1.94,0,0,1,169.85,88.22Z"/><path class="cls-6" d="M169.85,93.81a3.2,3.2,0,1,0,3.2,3.2A3.2,3.2,0,0,0,169.85,93.81Z"/><path class="cls-6" d="M169.85,98.94A1.93,1.93,0,1,1,171.78,97,1.94,1.94,0,0,1,169.85,98.94Z"/><path class="cls-6" d="M169.85,106.63a3.2,3.2,0,1,0,3.2,3.2A3.19,3.19,0,0,0,169.85,106.63Z"/><path class="cls-6" d="M169.85,111.76a1.93,1.93,0,1,1,1.93-1.93A1.94,1.94,0,0,1,169.85,111.76Z"/><path class="cls-6" d="M169.85,117.12a3.2,3.2,0,1,0,3.2,3.19A3.19,3.19,0,0,0,169.85,117.12Z"/><path class="cls-6" d="M169.85,122.24a1.93,1.93,0,1,1,1.93-1.93A1.93,1.93,0,0,1,169.85,122.24Z"/><path class="cls-6" d="M163.33,124.11a3.2,3.2,0,1,0,3.19,3.19A3.19,3.19,0,0,0,163.33,124.11Z"/><circle class="cls-6" cx="163.33" cy="127.3" r="1.93"/><path class="cls-6" d="M161.86,113.32a3.2,3.2,0,1,0-3.19,3.2A3.2,3.2,0,0,0,161.86,113.32Z"/><path class="cls-6" d="M158.67,111.39a1.93,1.93,0,1,1-1.93,1.93A1.94,1.94,0,0,1,158.67,111.39Z"/><path class="cls-6" d="M156.17,93.75a3.2,3.2,0,1,0,3.2-3.2A3.19,3.19,0,0,0,156.17,93.75Z"/><path class="cls-6" d="M159.37,91.82a1.93,1.93,0,1,1-1.93,1.93A1.93,1.93,0,0,1,159.37,91.82Z"/><path class="cls-6" d="M221.12,100.8a3.2,3.2,0,1,0,3.2,3.2A3.21,3.21,0,0,0,221.12,100.8Z"/><path class="cls-6" d="M221.12,102.07a1.93,1.93,0,1,1-1.93,1.93A1.93,1.93,0,0,1,221.12,102.07Z"/><path class="cls-6" d="M261.6,111.69a3.2,3.2,0,1,0-3.19,3.2A3.2,3.2,0,0,0,261.6,111.69Z"/><circle class="cls-6" cx="258.41" cy="111.69" r="1.93"/><path class="cls-6" d="M260.74,119a3.2,3.2,0,1,0,3.19,3.2A3.2,3.2,0,0,0,260.74,119Z"/><circle class="cls-6" cx="260.74" cy="122.18" r="1.93"/><path class="cls-6" d="M272.62,125.74a3.2,3.2,0,1,0,3.2,3.19A3.19,3.19,0,0,0,272.62,125.74Z"/><circle class="cls-6" cx="272.62" cy="128.93" r="1.93"/><path class="cls-6" d="M279.44,130.57a3.2,3.2,0,1,0,3.19,3.2A3.21,3.21,0,0,0,279.44,130.57Z"/><circle class="cls-6" cx="279.44" cy="133.77" r="1.93"/><path class="cls-6" d="M278.91,127.35a3.2,3.2,0,1,0-3.19-3.19A3.19,3.19,0,0,0,278.91,127.35Z"/><circle class="cls-6" cx="278.91" cy="124.16" r="1.93"/><path class="cls-6" d="M271.75,124.56a3.2,3.2,0,1,0-3.2-3.2A3.2,3.2,0,0,0,271.75,124.56Z"/><path class="cls-6" d="M271.75,119.43a1.93,1.93,0,1,1-1.93,1.93A1.94,1.94,0,0,1,271.75,119.43Z"/><path class="cls-6" d="M210.58,72.47a3.2,3.2,0,1,0-3.2-3.19A3.19,3.19,0,0,0,210.58,72.47Z"/><circle class="cls-6" cx="210.58" cy="69.28" r="1.93"/><path class="cls-6" d="M214.12,80.81a3.2,3.2,0,1,0-3.19,3.2A3.19,3.19,0,0,0,214.12,80.81Z"/><path class="cls-6" d="M210.93,82.74a1.93,1.93,0,1,1,1.93-1.93A1.93,1.93,0,0,1,210.93,82.74Z"/><path class="cls-6" d="M300,83.09a3.2,3.2,0,1,0,3.19,3.2A3.2,3.2,0,0,0,300,83.09Z"/><path class="cls-6" d="M300,88.22a1.93,1.93,0,1,1,1.93-1.93A1.93,1.93,0,0,1,300,88.22Z"/><path class="cls-6" d="M292.2,83.09a3.2,3.2,0,1,0,3.19,3.2A3.21,3.21,0,0,0,292.2,83.09Z"/><path class="cls-6" d="M292.2,84.36a1.93,1.93,0,1,1-1.93,1.93A1.93,1.93,0,0,1,292.2,84.36Z"/><path class="cls-6" d="M273,55.47a3.2,3.2,0,1,0-3.19,3.2A3.2,3.2,0,0,0,273,55.47Z"/><path class="cls-6" d="M269.83,57.4a1.93,1.93,0,1,1,1.93-1.93A1.93,1.93,0,0,1,269.83,57.4Z"/><path class="cls-6" d="M278.91,53a3.2,3.2,0,1,0-3.19-3.2A3.2,3.2,0,0,0,278.91,53Z"/><circle class="cls-6" cx="278.91" cy="49.76" r="1.93"/><path class="cls-6" d="M316.67,104.76a3.2,3.2,0,1,0,3.19,3.2A3.2,3.2,0,0,0,316.67,104.76Z"/><path class="cls-6" d="M316.67,109.89A1.93,1.93,0,1,1,318.6,108,1.92,1.92,0,0,1,316.67,109.89Z"/><path class="cls-6" d="M367.7,99.17a3.2,3.2,0,1,0,3.2,3.2A3.2,3.2,0,0,0,367.7,99.17Z"/><path class="cls-6" d="M367.7,104.3a1.93,1.93,0,1,1,1.93-1.93A1.94,1.94,0,0,1,367.7,104.3Z"/><path class="cls-6" d="M359.55,99.17a3.2,3.2,0,1,0,3.19,3.2A3.2,3.2,0,0,0,359.55,99.17Z"/><path class="cls-6" d="M359.55,104.3a1.93,1.93,0,1,1,1.93-1.93A1.94,1.94,0,0,1,359.55,104.3Z"/><path class="cls-6" d="M367.7,97.64a3.2,3.2,0,1,0-3.19-3.19A3.2,3.2,0,0,0,367.7,97.64Z"/><circle class="cls-6" cx="367.7" cy="94.45" r="1.93"/><path class="cls-6" d="M233,88.57a3.2,3.2,0,1,0,3.19,3.2A3.2,3.2,0,0,0,233,88.57Z"/><path class="cls-6" d="M233,89.84a1.93,1.93,0,1,1-1.94,1.93A1.93,1.93,0,0,1,233,89.84Z"/><path class="cls-6" d="M222.52,88.57a3.2,3.2,0,1,0,3.2,3.2A3.2,3.2,0,0,0,222.52,88.57Z"/><path class="cls-6" d="M222.52,93.7a1.93,1.93,0,1,1,1.93-1.93A1.93,1.93,0,0,1,222.52,93.7Z"/><polygon class="cls-7" points="360.08 93.5 362.55 91.04 362.55 84.9 361.32 83.67 357.52 83.67 354.57 80.72 354.57 72.95 366.02 61.5 366.02 2.4 367.29 2.4 367.29 62.02 355.84 73.47 355.84 80.2 358.04 82.41 361.85 82.41 363.81 84.37 363.81 91.56 360.98 94.4 360.08 93.5"/><polygon class="cls-8" points="366.3 2.69 367 2.69 367 61.91 355.55 73.35 355.55 80.32 357.93 82.69 361.73 82.69 363.53 84.49 363.53 91.44 360.98 94 360.48 93.5 362.83 91.16 362.83 84.78 361.44 83.39 357.64 83.39 354.86 80.61 354.86 73.06 366.3 61.62 366.3 2.69"/><path class="cls-9" d="M360.77,95.05a1.34,1.34,0,1,1,.94-.39A1.34,1.34,0,0,1,360.77,95.05Z"/><path class="cls-10" d="M360,93a1.05,1.05,0,1,0,1.49,0A1.06,1.06,0,0,0,360,93Z"/><polygon class="cls-11" points="357.35 87.69 351.25 81.6 351.25 69.8 355.88 65.17 355.88 29.52 358.33 27.07 358.33 3.1 359.6 3.1 359.6 27.59 357.15 30.04 357.15 65.69 352.52 70.33 352.52 81.08 357.87 86.43 358.42 86.43 358.42 87.69 357.35 87.69"/><polygon class="cls-12" points="358.61 3.39 359.31 3.39 359.31 27.48 356.87 29.92 356.87 65.58 352.23 70.21 352.23 81.19 357.75 86.71 358.14 86.71 358.14 87.41 357.46 87.41 351.53 81.48 351.53 69.92 356.17 65.29 356.17 29.63 358.61 27.19 358.61 3.39"/><path class="cls-13" d="M358.09,88.4a1.34,1.34,0,1,1,1.33-1.34A1.34,1.34,0,0,1,358.09,88.4Z"/><path class="cls-14" d="M358.09,88.11a1.05,1.05,0,1,0-1.06-1A1,1,0,0,0,358.09,88.11Z"/><polygon class="cls-15" points="349.42 89.54 349.42 67.27 354.4 62.29 354.4 27.77 356.28 25.89 356.28 2.58 357.54 2.58 357.54 26.41 355.66 28.29 355.66 62.81 350.68 67.79 350.68 89.54 349.42 89.54"/><polygon class="cls-16" points="356.56 2.86 357.26 2.86 357.26 26.3 355.38 28.17 355.38 62.69 350.4 67.67 350.4 89.25 349.7 89.25 349.7 67.39 354.68 62.4 354.68 27.89 356.56 26.01 356.56 2.86"/><path class="cls-17" d="M350.05,90.53a1.34,1.34,0,1,1,1.33-1.33A1.34,1.34,0,0,1,350.05,90.53Z"/><path class="cls-18" d="M351.1,89.2a1.05,1.05,0,1,1-1.05-1A1,1,0,0,1,351.1,89.2Z"/><polygon class="cls-19" points="343.81 86.33 346.36 83.78 346.36 65.52 351.82 60.06 351.82 26.89 354.2 24.51 354.2 2.05 355.47 2.05 355.47 25.04 353.08 27.42 353.08 60.58 347.62 66.04 347.62 84.31 344.71 87.22 343.81 86.33"/><polygon class="cls-20" points="354.48 2.34 355.18 2.34 355.18 24.92 352.8 27.3 352.8 60.47 347.34 65.93 347.34 84.19 344.71 86.82 344.22 86.33 346.64 83.9 346.64 65.64 352.1 60.17 352.1 27.01 354.48 24.63 354.48 2.34"/><path class="cls-21" d="M344.5,87.87a1.32,1.32,0,0,1-.94-.39,1.34,1.34,0,0,1,0-1.89,1.33,1.33,0,0,1,1.88,0,1.34,1.34,0,0,1,0,1.89A1.32,1.32,0,0,1,344.5,87.87Z"/><path class="cls-22" d="M345.24,87.28a1,1,0,0,1-1.48,0,1.06,1.06,0,0,1,0-1.49,1,1,0,0,1,1.48,0A1.06,1.06,0,0,1,345.24,87.28Z"/><polygon class="cls-23" points="335.08 91.68 335.08 84.63 340.24 79.47 340.24 63.48 347.71 56.01 347.71 24.33 349.96 22.08 349.96 2.93 352.63 2.93 352.63 23.18 350.38 25.43 350.38 57.11 342.9 64.58 342.9 80.58 337.75 85.73 337.75 90.57 342.09 94.91 340.2 96.8 335.08 91.68"/><polygon class="cls-24" points="350.25 3.21 352.34 3.21 352.34 23.07 350.09 25.32 350.09 57 342.62 64.47 342.62 80.46 337.46 85.62 337.46 90.69 341.69 94.91 340.2 96.39 335.37 91.56 335.37 84.75 340.52 79.59 340.52 63.6 348 56.13 348 24.45 350.25 22.2 350.25 3.21"/><path class="cls-25" d="M340.86,98.22a2.65,2.65,0,1,1,1.87-.78A2.63,2.63,0,0,1,340.86,98.22Z"/><path class="cls-26" d="M342.53,93.9a2.36,2.36,0,1,1-3.34,0A2.35,2.35,0,0,1,342.53,93.9Z"/><polygon class="cls-27" points="335.35 76.25 335.35 59.84 343.47 51.71 343.47 1.7 344.74 1.7 344.74 52.24 336.61 60.36 336.61 76.25 335.35 76.25"/><polygon class="cls-28" points="343.76 1.99 344.46 1.99 344.46 52.12 336.33 60.25 336.33 75.97 335.63 75.97 335.63 59.96 343.76 51.83 343.76 1.99"/><path class="cls-29" d="M336,77.25a1.34,1.34,0,1,1,1.33-1.33A1.34,1.34,0,0,1,336,77.25Z"/><path class="cls-30" d="M334.93,75.92A1.05,1.05,0,1,0,336,74.86,1,1,0,0,0,334.93,75.92Z"/><polygon class="cls-31" points="328.13 85.15 330.1 83.17 330.1 52.5 332.29 50.31 332.29 46.57 333.55 46.57 333.55 50.84 331.37 53.02 331.37 83.7 329.02 86.04 328.13 85.15"/><polygon class="cls-32" points="332.57 46.86 333.27 46.86 333.27 50.72 331.08 52.91 331.08 83.58 329.02 85.64 328.53 85.15 330.39 83.29 330.39 52.62 332.57 50.43 332.57 46.86"/><path class="cls-33" d="M332.92,48.24a1.34,1.34,0,1,1,1.34-1.33A1.33,1.33,0,0,1,332.92,48.24Z"/><path class="cls-34" d="M331.87,46.91A1.05,1.05,0,1,1,332.92,48,1,1,0,0,1,331.87,46.91Z"/><path class="cls-35" d="M328.81,86.69a1.34,1.34,0,1,1,.95-.39A1.33,1.33,0,0,1,328.81,86.69Z"/><path class="cls-36" d="M328.07,84.61a1.05,1.05,0,1,0,1.49,0A1.06,1.06,0,0,0,328.07,84.61Z"/><polygon class="cls-37" points="324.16 78.7 324.16 60.36 325.3 59.23 325.3 40.53 335.08 30.74 335.08 1.53 336.35 1.53 336.35 31.26 326.56 41.05 326.56 59.75 325.43 60.89 325.43 78.7 324.16 78.7"/><polygon class="cls-38" points="335.37 1.81 336.07 1.81 336.07 31.14 326.28 40.93 326.28 59.63 325.14 60.77 325.14 78.42 324.44 78.42 324.44 60.48 325.58 59.34 325.58 40.64 335.37 30.86 335.37 1.81"/><path class="cls-39" d="M324.79,79.7a1.34,1.34,0,1,1,1.34-1.34A1.34,1.34,0,0,1,324.79,79.7Z"/><path class="cls-40" d="M323.74,78.36a1,1,0,1,0,1.05-1A1,1,0,0,0,323.74,78.36Z"/><polygon class="cls-41" points="322.06 90.34 322.06 34.5 331.76 24.8 331.76 2.93 333.03 2.93 333.03 25.32 323.33 35.02 323.33 89.81 327.14 93.62 326.24 94.52 322.06 90.34"/><polygon class="cls-42" points="332.05 3.21 332.75 3.21 332.75 25.2 323.05 34.9 323.05 89.93 326.74 93.62 326.24 94.12 322.35 90.22 322.35 34.61 332.05 24.91 332.05 3.21"/><path class="cls-43" d="M326.45,95.17a1.34,1.34,0,1,1,.95-.39A1.33,1.33,0,0,1,326.45,95.17Z"/><path class="cls-44" d="M325.71,94.58a1.05,1.05,0,1,0,0-1.49A1.06,1.06,0,0,0,325.71,94.58Z"/><polygon class="cls-45" points="314.54 56.53 319.18 51.89 319.18 32.66 329.14 22.7 329.14 2.4 330.41 2.4 330.41 23.22 320.44 33.19 320.44 52.41 315.44 57.42 314.54 56.53"/><polygon class="cls-46" points="329.43 2.69 330.12 2.69 330.12 23.11 320.16 33.07 320.16 52.29 315.44 57.02 314.94 56.53 319.46 52 319.46 32.78 329.43 22.82 329.43 2.69"/><path class="cls-47" d="M315.23,58.07a1.34,1.34,0,1,1,.94-.39A1.34,1.34,0,0,1,315.23,58.07Z"/><path class="cls-48" d="M314.48,56A1.05,1.05,0,1,0,316,56,1.06,1.06,0,0,0,314.48,56Z"/><polygon class="cls-49" points="312.89 94.25 312.89 67.62 305.57 60.3 287.39 60.3 281.62 66.06 254.71 66.06 246.32 74.45 229.54 74.45 223.68 80.31 221.25 80.31 221.25 79.04 223.16 79.04 229.01 73.19 245.79 73.19 254.18 64.8 281.1 64.8 286.87 59.03 306.09 59.03 314.15 67.09 314.15 94.25 312.89 94.25"/><polygon class="cls-50" points="286.98 59.31 305.98 59.31 313.87 67.21 313.87 93.97 313.17 93.97 313.17 67.5 305.69 60.01 287.27 60.01 281.51 65.78 254.59 65.78 246.2 74.17 229.42 74.17 223.57 80.03 221.54 80.03 221.54 79.33 223.28 79.33 229.13 73.47 245.91 73.47 254.3 65.08 281.22 65.08 286.98 59.31"/><circle class="cls-51" cx="313.52" cy="93.92" r="1.33"/><path class="cls-52" d="M314.57,93.92a1.05,1.05,0,1,1-1.05-1A1,1,0,0,1,314.57,93.92Z"/><circle class="cls-53" cx="221.59" cy="79.68" r="1.33"/><circle class="cls-54" cx="221.59" cy="79.68" r="1.05"/><polygon class="cls-55" points="231.58 79.49 233.56 77.51 245.75 77.51 256.28 66.98 282.76 66.98 288.44 61.3 303.3 61.3 306.82 64.83 305.93 65.72 302.77 62.57 288.96 62.57 283.28 68.25 256.8 68.25 246.27 78.78 234.08 78.78 232.48 80.38 231.58 79.49"/><polygon class="cls-56" points="288.56 61.59 303.18 61.59 306.42 64.83 305.93 65.32 302.89 62.29 288.85 62.29 283.17 67.97 256.69 67.97 246.16 78.5 233.97 78.5 232.48 79.98 231.99 79.49 233.68 77.8 245.87 77.8 256.4 67.27 282.88 67.27 288.56 61.59"/><path class="cls-57" d="M306.14,66.37a1.34,1.34,0,1,1,.94-2.28,1.36,1.36,0,0,1,.39,1,1.33,1.33,0,0,1-1.33,1.33Z"/><path class="cls-58" d="M306.88,64.29a1.05,1.05,0,1,1-1.49,0A1.06,1.06,0,0,1,306.88,64.29Z"/><path class="cls-59" d="M232.27,81a1.32,1.32,0,0,1-.94-.39,1.34,1.34,0,0,1,0-1.89,1.33,1.33,0,0,1,1.88,0,1.34,1.34,0,0,1,0,1.89A1.32,1.32,0,0,1,232.27,81Z"/><path class="cls-60" d="M231.53,79a1.06,1.06,0,0,0,0,1.49,1,1,0,0,0,1.48,0A1.06,1.06,0,0,0,233,79,1,1,0,0,0,231.53,79Z"/><polygon class="cls-61" points="201.3 100.72 201.3 69.29 210.31 60.28 237.6 60.28 248.07 49.81 270.13 49.81 276.38 43.56 278.92 43.56 298.23 24.25 302.6 24.25 305.41 27.07 305.41 37.55 310.49 42.63 309.6 43.53 304.15 38.08 304.15 27.59 302.07 25.52 298.75 25.52 279.44 44.83 276.9 44.83 270.66 51.08 248.59 51.08 238.13 61.54 210.84 61.54 202.57 69.81 202.57 100.72 201.3 100.72"/><polygon class="cls-62" points="298.34 24.53 302.48 24.53 305.13 27.19 305.13 37.67 310.09 42.63 309.6 43.13 304.43 37.96 304.43 27.48 302.19 25.23 298.63 25.23 279.32 44.55 276.79 44.55 270.54 50.79 248.47 50.79 238.01 61.26 210.72 61.26 202.28 69.69 202.28 100.44 201.59 100.44 201.59 69.41 210.43 60.56 237.72 60.56 248.18 50.09 270.25 50.09 276.5 43.85 279.03 43.85 298.34 24.53"/><path class="cls-63" d="M309.81,44.18a1.34,1.34,0,1,1,.94-2.28,1.32,1.32,0,0,1,.39.94,1.36,1.36,0,0,1-.39.95A1.33,1.33,0,0,1,309.81,44.18Z"/><path class="cls-64" d="M310.55,42.1a1.05,1.05,0,1,1-1.49,0A1.06,1.06,0,0,1,310.55,42.1Z"/><circle class="cls-65" cx="201.94" cy="100.39" r="1.33"/><circle class="cls-66" cx="201.93" cy="100.39" r="1.05"/><polygon class="cls-67" points="144.23 158.67 144.23 157.4 153.48 157.4 165.31 145.57 165.31 138.52 180.46 123.37 180.46 74.84 202.1 53.2 237 53.2 245.27 44.93 253.01 44.93 258.55 39.39 267.4 39.39 271.14 35.66 282.54 35.66 286.23 31.96 286.23 24.01 283.34 21.12 284.24 20.22 287.5 23.49 287.5 32.49 283.06 36.92 271.66 36.92 267.92 40.66 259.08 40.66 253.54 46.2 245.79 46.2 237.52 54.47 202.62 54.47 181.73 75.36 181.73 123.89 166.58 139.04 166.58 146.09 154 158.67 144.23 158.67"/><polygon class="cls-68" points="284.24 20.62 287.22 23.6 287.22 32.37 282.95 36.64 271.54 36.64 267.81 40.37 258.96 40.37 253.42 45.91 245.68 45.91 237.4 54.19 202.51 54.19 181.44 75.25 181.44 123.78 166.3 138.93 166.3 145.97 153.89 158.38 144.51 158.38 144.51 157.69 153.6 157.69 165.6 145.69 165.6 138.64 180.75 123.49 180.75 74.96 202.22 53.49 237.11 53.49 245.39 45.21 253.13 45.21 258.67 39.67 267.52 39.67 271.25 35.94 282.66 35.94 286.52 32.08 286.52 23.89 283.74 21.12 284.24 20.62"/><path class="cls-69" d="M284,22.24a1.36,1.36,0,0,1-.95-.39,1.33,1.33,0,0,1-.39-.94A1.33,1.33,0,0,1,284,19.57,1.33,1.33,0,0,1,285,20a1.36,1.36,0,0,1,.39.95A1.33,1.33,0,0,1,284,22.24Z"/><path class="cls-70" d="M283.28,21.65a1.05,1.05,0,1,1,1.49,0A1.06,1.06,0,0,1,283.28,21.65Z"/><polygon class="cls-71" points="140.67 155.64 140.67 154.37 152.08 154.37 161.23 145.22 161.23 137.23 176.31 122.15 176.31 72.38 201.05 47.64 234.58 47.64 242.06 40.16 251.56 40.16 256.75 34.97 264.79 34.97 268.87 30.89 277.73 30.89 277.73 32.16 269.39 32.16 265.31 36.24 257.27 36.24 252.09 41.42 242.59 41.42 235.1 48.91 201.57 48.91 177.58 72.9 177.58 122.67 162.5 137.75 162.5 145.74 152.6 155.64 140.67 155.64"/><polygon class="cls-72" points="268.98 31.18 277.45 31.18 277.45 31.88 269.27 31.88 265.19 35.95 257.15 35.95 251.97 41.14 242.47 41.14 234.99 48.62 201.46 48.62 177.29 72.79 177.29 122.56 162.21 137.64 162.21 145.63 152.49 155.35 140.96 155.35 140.96 154.65 152.2 154.65 161.51 145.34 161.51 137.35 176.6 122.27 176.6 72.5 201.17 47.92 234.7 47.92 242.18 40.44 251.68 40.44 256.86 35.25 264.9 35.25 268.98 31.18"/><path class="cls-73" d="M277.4,32.86a1.34,1.34,0,1,1,1.33-1.33A1.34,1.34,0,0,1,277.4,32.86Z"/><circle class="cls-74" cx="277.4" cy="31.53" r="1.05"/><polygon class="cls-75" points="276.21 114.31 260.94 99.04 235.59 99.04 235.59 97.77 261.46 97.77 276.73 113.04 323.63 113.04 328 108.66 328.9 109.56 324.15 114.31 276.21 114.31"/><polygon class="cls-76" points="235.87 98.06 261.35 98.06 276.61 113.32 323.75 113.32 328 109.06 328.5 109.56 324.04 114.02 276.32 114.02 261.06 98.76 235.87 98.76 235.87 98.06"/><path class="cls-77" d="M235.92,99.74a1.34,1.34,0,1,1,1.34-1.33A1.34,1.34,0,0,1,235.92,99.74Z"/><circle class="cls-78" cx="235.92" cy="98.41" r="1.05"/><path class="cls-79" d="M328.22,110.68a1.33,1.33,0,1,1,.94-.39A1.34,1.34,0,0,1,328.22,110.68Z"/><path class="cls-80" d="M329,110.09a1.05,1.05,0,1,0-1.49,0A1.06,1.06,0,0,0,329,110.09Z"/><polygon class="cls-81" points="278.65 95.43 272.16 88.93 273.05 88.04 279.18 94.16 302.54 94.16 308.81 87.89 308.81 77.23 306.62 75.04 288.72 75.04 288.72 73.77 307.14 73.77 310.07 76.7 310.07 88.42 303.06 95.43 278.65 95.43"/><polygon class="cls-82" points="289 74.06 307.02 74.06 309.79 76.82 309.79 88.3 302.94 95.14 278.77 95.14 272.56 88.93 273.05 88.44 279.06 94.44 302.66 94.44 309.09 88.01 309.09 77.11 306.73 74.75 289 74.75 289 74.06"/><path class="cls-83" d="M289.05,75.74a1.34,1.34,0,1,1,1.34-1.34A1.34,1.34,0,0,1,289.05,75.74Z"/><circle class="cls-84" cx="289.05" cy="74.4" r="1.05"/><path class="cls-85" d="M272.84,90.06a1.32,1.32,0,0,1-.94-.39,1.34,1.34,0,0,1,0-1.89,1.33,1.33,0,1,1,.94,2.28Z"/><path class="cls-86" d="M273.58,88a1,1,0,0,0-1.48,0,1.06,1.06,0,0,0,0,1.49,1,1,0,0,0,1.48,0A1.06,1.06,0,0,0,273.58,88Z"/><polygon class="cls-87" points="154.31 122.59 154.31 119.47 150.93 116.09 150.93 92.2 147.69 88.96 131.12 88.96 131.12 86.3 148.79 86.3 153.59 91.1 153.59 114.98 156.97 118.36 156.97 122.59 154.31 122.59"/><polygon class="cls-88" points="131.4 86.58 148.67 86.58 153.31 91.22 153.31 115.1 156.69 118.48 156.69 122.31 154.59 122.31 154.59 119.35 151.21 115.97 151.21 92.08 147.8 88.68 131.4 88.68 131.4 86.58"/><circle class="cls-89" cx="155.64" cy="122.23" r="1.86"/><path class="cls-90" d="M157.21,122.23a1.58,1.58,0,1,1-1.57-1.58A1.57,1.57,0,0,1,157.21,122.23Z"/><polygon class="cls-91" points="171.34 42.95 167.49 39.1 168.38 38.2 171.86 41.68 202.92 41.68 206.29 38.31 235.56 38.31 240.38 33.49 247.34 33.49 251.91 28.93 262.7 28.93 272.25 19.38 272.25 15.45 277.06 10.64 277.06 5.9 278.32 5.9 278.32 11.16 273.52 15.97 273.52 19.9 263.23 30.19 252.44 30.19 247.87 34.76 240.9 34.76 236.08 39.58 206.82 39.58 203.45 42.95 171.34 42.95"/><polygon class="cls-92" points="277.34 6.18 278.04 6.18 278.04 11.05 273.23 15.85 273.23 19.79 263.11 29.91 252.32 29.91 247.75 34.47 240.78 34.47 235.97 39.29 206.7 39.29 203.33 42.66 171.46 42.66 167.89 39.1 168.38 38.6 171.75 41.96 203.04 41.96 206.41 38.59 235.68 38.59 240.49 33.77 247.46 33.77 252.03 29.21 262.82 29.21 272.54 19.5 272.54 15.56 277.34 10.76 277.34 6.18"/><path class="cls-93" d="M168.17,40.22a1.34,1.34,0,1,1,1-.39A1.33,1.33,0,0,1,168.17,40.22Z"/><path class="cls-94" d="M168.92,38.14a1.05,1.05,0,1,0,0,1.49A1.06,1.06,0,0,0,168.92,38.14Z"/><polygon class="cls-95" points="207.87 36.91 202.08 31.13 184.62 31.13 181.05 34.7 177.21 34.7 177.21 33.43 180.52 33.43 184.1 29.86 202.61 29.86 208.39 35.64 234.81 35.64 239.33 31.13 246.56 31.13 250.86 26.83 260.78 26.83 269.63 17.98 269.63 13.7 274.65 8.68 275.54 9.58 270.89 14.22 270.89 18.5 261.31 28.09 251.39 28.09 247.08 32.4 239.85 32.4 235.34 36.91 207.87 36.91"/><polygon class="cls-96" points="274.65 9.08 275.14 9.57 270.61 14.11 270.61 18.39 261.19 27.81 251.27 27.81 246.97 32.12 239.73 32.12 235.22 36.63 207.98 36.63 202.2 30.84 184.5 30.84 180.93 34.42 177.49 34.42 177.49 33.72 180.64 33.72 184.21 30.14 202.49 30.14 208.27 35.93 234.93 35.93 239.44 31.42 246.68 31.42 250.98 27.11 260.9 27.11 269.91 18.1 269.91 13.81 274.65 9.08"/><path class="cls-97" d="M177.55,35.4a1.34,1.34,0,1,1,1.33-1.33A1.34,1.34,0,0,1,177.55,35.4Z"/><path class="cls-98" d="M177.55,33a1,1,0,1,0,1,1A1.05,1.05,0,0,0,177.55,33Z"/><polygon class="cls-99" points="209.26 34.58 202.98 28.3 170.81 28.3 165.9 23.39 166.79 22.49 171.34 27.04 203.51 27.04 209.79 33.32 234.24 33.32 238.28 29.27 245.75 29.27 250.58 24.45 250.58 18.94 253.31 16.21 265.18 16.21 271.3 9.56 272.23 10.42 265.73 17.48 253.83 17.48 251.84 19.46 251.84 24.97 246.27 30.54 238.8 30.54 234.76 34.58 209.26 34.58"/><polygon class="cls-100" points="271.32 9.96 271.83 10.44 265.61 17.19 253.72 17.19 251.56 19.35 251.56 24.85 246.16 30.26 238.69 30.26 234.64 34.3 209.38 34.3 203.1 28.02 170.93 28.02 166.3 23.39 166.79 22.89 171.22 27.32 203.39 27.32 209.67 33.6 234.35 33.6 238.4 29.56 245.87 29.56 250.86 24.56 250.86 19.06 253.43 16.49 265.3 16.49 271.32 9.96"/><path class="cls-101" d="M166.58,24.51a1.34,1.34,0,0,1-.94-2.28,1.33,1.33,0,0,1,1.88,0,1.33,1.33,0,0,1-.94,2.28Z"/><path class="cls-102" d="M167.32,22.43a1,1,0,0,0-1.48,0,1.06,1.06,0,0,0,0,1.49,1.05,1.05,0,0,0,1.48-1.49Z"/><polygon class="cls-103" points="210.31 31.83 204.1 25.61 176.58 25.61 173.62 22.65 174.51 21.76 177.1 24.35 204.62 24.35 210.84 30.56 232.88 30.56 236.71 26.74 245.31 26.74 248.13 23.92 248.13 17.72 252.44 13.41 263.27 13.41 268 8.68 268.9 9.58 263.8 14.68 252.96 14.68 249.4 18.24 249.4 24.45 245.84 28.01 237.23 28.01 233.41 31.83 210.31 31.83"/><polygon class="cls-104" points="268 9.08 268.5 9.57 263.68 14.4 252.84 14.4 249.11 18.13 249.11 24.33 245.72 27.72 237.11 27.72 233.29 31.55 210.43 31.55 204.22 25.33 176.7 25.33 174.02 22.65 174.51 22.16 176.99 24.63 204.5 24.63 210.72 30.85 233 30.85 236.82 27.02 245.43 27.02 248.41 24.04 248.41 17.84 252.55 13.7 263.39 13.7 268 9.08"/><path class="cls-105" d="M174.3,23.78a1.33,1.33,0,0,1-.94-.39,1.36,1.36,0,0,1-.39-.95,1.34,1.34,0,1,1,1.33,1.34Z"/><path class="cls-106" d="M175.05,21.7a1.05,1.05,0,1,0,0,1.49A1.06,1.06,0,0,0,175.05,21.7Z"/><polygon class="cls-107" points="210.66 29.1 204.06 22.5 180.78 22.5 175.56 17.28 169.07 17.28 166.51 14.73 167.41 13.83 169.59 16.01 176.08 16.01 181.3 21.23 204.59 21.23 211.19 27.83 222.99 27.83 231.64 19.18 236.71 19.18 246.86 9.03 247.75 9.93 237.23 20.45 232.16 20.45 223.51 29.1 210.66 29.1"/><polygon class="cls-108" points="246.86 9.43 247.35 9.93 237.11 20.16 232.04 20.16 223.39 28.82 210.78 28.82 204.18 22.22 180.89 22.22 175.67 17 169.18 17 166.91 14.73 167.41 14.23 169.47 16.3 175.96 16.3 181.18 21.52 204.47 21.52 211.07 28.12 223.1 28.12 231.75 19.46 236.82 19.46 246.86 9.43"/><path class="cls-109" d="M167.2,15.85a1.36,1.36,0,0,1-.95-.39,1.33,1.33,0,0,1-.39-.94,1.33,1.33,0,0,1,1.34-1.34,1.32,1.32,0,0,1,.94.39,1.34,1.34,0,0,1,0,1.89A1.32,1.32,0,0,1,167.2,15.85Z"/><path class="cls-110" d="M167.94,13.77a1.05,1.05,0,1,0,0,1.49A1.06,1.06,0,0,0,167.94,13.77Z"/><polygon class="cls-111" points="212.06 25.65 205 18.59 180.95 18.59 176.9 14.54 172.14 14.54 172.14 13.27 177.42 13.27 181.47 17.32 205.53 17.32 212.59 24.38 220.58 24.38 229.89 15.07 235.22 15.07 241.61 8.68 242.51 9.58 235.74 16.34 230.41 16.34 221.11 25.65 212.06 25.65"/><polygon class="cls-112" points="241.61 9.08 242.11 9.57 235.63 16.06 230.29 16.06 220.99 25.36 212.18 25.36 205.12 18.31 181.07 18.31 177.01 14.26 172.42 14.26 172.42 13.56 177.31 13.56 181.36 17.61 205.41 17.61 212.47 24.66 220.7 24.66 230.01 15.36 235.34 15.36 241.61 9.08"/><path class="cls-113" d="M172.48,15.24a1.34,1.34,0,1,1,1.33-1.33A1.34,1.34,0,0,1,172.48,15.24Z"/><path class="cls-114" d="M172.48,12.85a1.06,1.06,0,1,0,1.05,1.06A1.05,1.05,0,0,0,172.48,12.85Z"/><polygon class="cls-115" points="212.41 20.71 206.16 14.46 184.03 14.46 184.03 13.2 206.69 13.2 212.94 19.44 220.54 19.44 227.97 12.02 231.81 12.02 235.32 8.51 236.22 9.4 232.34 13.28 228.49 13.28 221.06 20.71 212.41 20.71"/><polygon class="cls-116" points="235.32 8.91 235.82 9.4 232.22 13 228.37 13 220.94 20.43 212.53 20.43 206.28 14.18 184.31 14.18 184.31 13.48 206.57 13.48 212.82 19.73 220.66 19.73 228.08 12.3 231.93 12.3 235.32 8.91"/><path class="cls-117" d="M184.36,15.16a1.34,1.34,0,1,1,1.34-1.33A1.34,1.34,0,0,1,184.36,15.16Z"/><path class="cls-118" d="M184.36,12.78a1.05,1.05,0,1,0,1,1.05A1,1,0,0,0,184.36,12.78Z"/><polygon class="cls-119" points="215.84 16.08 215.84 14.81 219.23 14.81 225.88 8.16 226.78 9.05 219.75 16.08 215.84 16.08"/><polygon class="cls-120" points="225.88 8.56 226.38 9.05 219.63 15.79 216.12 15.79 216.12 15.1 219.34 15.1 225.88 8.56"/><path class="cls-121" d="M216.17,16.78a1.34,1.34,0,1,1,1.34-1.33A1.34,1.34,0,0,1,216.17,16.78Z"/><path class="cls-122" d="M216.17,14.39a1.06,1.06,0,1,0,1.05,1.06A1.05,1.05,0,0,0,216.17,14.39Z"/><polygon class="cls-123" points="153.03 61.27 153.03 45.48 147.87 40.32 147.87 6.54 150.53 6.54 150.53 39.22 155.69 44.38 155.69 61.27 153.03 61.27"/><polygon class="cls-124" points="148.15 6.83 150.25 6.83 150.25 39.34 155.41 44.49 155.41 60.98 153.31 60.98 153.31 45.36 148.15 40.21 148.15 6.83"/><path class="cls-125" d="M154.36,64.26a3.44,3.44,0,1,1,3.44-3.43A3.44,3.44,0,0,1,154.36,64.26Z"/><circle class="cls-126" cx="154.36" cy="60.82" r="3.15" transform="translate(62.84 199.21) rotate(-78.03)"/><path class="cls-6" d="M157.26,61a3.2,3.2,0,1,0-3.2,3.2A3.2,3.2,0,0,0,157.26,61Z"/><path class="cls-6" d="M343.36,95.43a2.5,2.5,0,1,0-2.5,2.49A2.5,2.5,0,0,0,343.36,95.43Z"/><path class="cls-6" d="M327.92,93.88a1.38,1.38,0,1,0-1.38,1.37A1.38,1.38,0,0,0,327.92,93.88Z"/><path class="cls-6" d="M330.19,85.36a1.38,1.38,0,1,0-2.75,0,1.38,1.38,0,0,0,2.75,0Z"/><path class="cls-6" d="M314.9,93.88a1.38,1.38,0,1,0-1.38,1.37A1.38,1.38,0,0,0,314.9,93.88Z"/><path class="cls-6" d="M326.13,78.34a1.38,1.38,0,1,0-1.38,1.38A1.38,1.38,0,0,0,326.13,78.34Z"/><path class="cls-6" d="M307.51,65a1.38,1.38,0,1,0-1.37,1.38A1.38,1.38,0,0,0,307.51,65Z"/><path class="cls-6" d="M290.43,74.4a1.38,1.38,0,1,0-1.38,1.38A1.37,1.37,0,0,0,290.43,74.4Z"/><path class="cls-6" d="M274.22,88.72a1.38,1.38,0,1,0-1.38,1.38A1.38,1.38,0,0,0,274.22,88.72Z"/><path class="cls-6" d="M157.5,122.17a1.86,1.86,0,1,0-1.86,1.86A1.87,1.87,0,0,0,157.5,122.17Z"/><path class="cls-6" d="M337.36,76A1.38,1.38,0,1,0,336,77.35,1.38,1.38,0,0,0,337.36,76Z"/><path class="cls-6" d="M345.88,86.54a1.38,1.38,0,1,0-1.38,1.37A1.38,1.38,0,0,0,345.88,86.54Z"/><path class="cls-6" d="M351.43,89.25a1.38,1.38,0,1,0-1.38,1.38A1.38,1.38,0,0,0,351.43,89.25Z"/><path class="cls-6" d="M359.46,87.06a1.38,1.38,0,1,0-1.37,1.38A1.37,1.37,0,0,0,359.46,87.06Z"/><path class="cls-6" d="M362.14,93.71a1.38,1.38,0,1,0-1.37,1.38A1.37,1.37,0,0,0,362.14,93.71Z"/><path d="M375.23,178.87H111.62a3.5,3.5,0,0,1-3.5-3.5V3.5a3.5,3.5,0,0,1,3.5-3.5H375.23a3.5,3.5,0,0,1,3.5,3.5V175.37A3.5,3.5,0,0,1,375.23,178.87Zm-260.11-7H371.73V7H115.12Z"/><path d="M79,178.79H407.7a.12.12,0,0,1,.12.12v10.44a4.54,4.54,0,0,1-4.54,4.54H83.57A4.54,4.54,0,0,1,79,189.35V178.79A0,0,0,0,1,79,178.79Z"/><rect class="cls-127" x="87.19" y="185.28" width="21.77" height="2.12"/><circle class="cls-127" cx="370.99" cy="186.34" r="4.25"/><circle class="cls-127" cx="382.41" cy="186.34" r="4.25"/><circle class="cls-127" cx="393.84" cy="186.34" r="4.25"/><rect class="cls-127" x="202.78" y="175.25" width="81.29" height="4.23" rx="1.62"/></g></g></svg>